# xmcd CD database file
# 
# Track frame offsets:
# 	150
# 	15225
# 	32030
# 	47265
# 	59590
# 	81740
# 	91337
# 	102137
# 	117765
# 	133187
# 	148022
# 	173032
# 
# Disc length: 2427 seconds
# 
# Submitted via: Nero 5.5.9.0
# 
# Revision: 0
# Processed by: cddbd v1.4PL0 Copyright (c) Steve Scherf et al.
#
DISCID=9a09790c
DTITLE=Jerry Jeff Walker - Five Years Gone
DYEAR=1900
DGENRE=
TTITLE0=Help Me Now
TTITLE1=Blues In Your Mind
TTITLE2=Seasons Change
TTITLE3=About Her Eyes
TTITLE4=Janet Says
TTITLE5=Dead Men Got No Dreams
TTITLE6=Tracks Run Through The City
TTITLE7=Happiness Is A Good Place To Visit Buty It Was So Sad  In Fayeteville
TTITLE8=Courage Of Love
TTITLE9=A Letter Sung To Friends
TTITLE10=Mr. Bojangles
TTITLE11=Born To Sing A Dancin' Song
EXTD=
EXTT0=
EXTT1=
EXTT2=
EXTT3=
EXTT4=
EXTT5=
EXTT6=
EXTT7=
EXTT8=
EXTT9=
EXTT10=
EXTT11=
PLAYORDER=
